<?xml version="1.0" encoding="UTF-8" standalone="no"?>
<!-- Created with Inkscape (http://www.inkscape.org/) -->

<svg
   width="210mm"
   height="297mm"
   viewBox="0 0 210 297"
   version="1.1"
   id="svg5"
   sodipodi:docname="coralberry-fairy-dark-v1.svg"
   inkscape:version="1.1.1 (3bf5ae0d25, 2021-09-20)"
   xmlns:inkscape="http://www.inkscape.org/namespaces/inkscape"
   xmlns:sodipodi="http://sodipodi.sourceforge.net/DTD/sodipodi-0.dtd"
   xmlns="http://www.w3.org/2000/svg"
   xmlns:svg="http://www.w3.org/2000/svg">
  <sodipodi:namedview
     id="namedview7"
     pagecolor="#505050"
     bordercolor="#eeeeee"
     borderopacity="1"
     inkscape:pageshadow="0"
     inkscape:pageopacity="0"
     inkscape:pagecheckerboard="0"
     inkscape:document-units="mm"
     showgrid="false"
     inkscape:zoom="0.51093025"
     inkscape:cx="32.294036"
     inkscape:cy="450.1593"
     inkscape:window-width="1920"
     inkscape:window-height="979"
     inkscape:window-x="0"
     inkscape:window-y="32"
     inkscape:window-maximized="1"
     inkscape:current-layer="layer1" />
  <defs
     id="defs2" />
  <g
     inkscape:groupmode="layer"
     id="layer2"
     inkscape:label="layer-0">
    <rect
       style="fill:#000000;fill-opacity:1;stroke:#ffffff;stroke-width:1.11864;stroke-linecap:round;stroke-linejoin:round;stroke-miterlimit:4;stroke-dasharray:none;stroke-opacity:1;paint-order:markers fill stroke"
       id="rect149759"
       width="190.16927"
       height="271.59631"
       x="9.9153671"
       y="12.701843"
       ry="3.3822379" />
  </g>
  <g
     inkscape:label="Layer 1"
     inkscape:groupmode="layer"
     id="layer1">
    <text
       xml:space="preserve"
       style="font-style:normal;font-variant:normal;font-weight:normal;font-stretch:normal;font-size:35.2778px;line-height:1.25;font-family:'Daresiel Demo';-inkscape-font-specification:'Daresiel Demo';fill:#ffffff;fill-opacity:1;stroke:none;stroke-width:0.264583"
       x="17.238035"
       y="266.45126"
       id="text26728"><tspan
         sodipodi:role="line"
         id="tspan26726"
         style="font-style:normal;font-variant:normal;font-weight:normal;font-stretch:normal;font-size:35.2778px;font-family:'Daresiel Demo';-inkscape-font-specification:'Daresiel Demo';stroke-width:0.264583;fill:#ffffff;fill-opacity:1"
         x="17.238035"
         y="266.45126">Correlberry Fairy</tspan></text>
    <text
       xml:space="preserve"
       style="font-style:normal;font-weight:normal;font-size:10.5833px;line-height:1.25;font-family:sans-serif;fill:#000000;fill-opacity:1;stroke:none;stroke-width:0.264583"
       x="87.643227"
       y="216.95355"
       id="text50270"><tspan
         sodipodi:role="line"
         id="tspan50268"
         style="stroke-width:0.264583"
         x="87.643227"
         y="216.95355" /></text>
    <text
       xml:space="preserve"
       style="font-style:normal;font-weight:normal;font-size:10.5833px;line-height:1.25;font-family:sans-serif;fill:#000000;fill-opacity:1;stroke:none;stroke-width:0.264583"
       x="14.882812"
       y="190.58269"
       id="text144841"><tspan
         sodipodi:role="line"
         id="tspan144839"
         style="stroke-width:0.264583"></tspan></text>
    <path
       style="fill:none;stroke:#d16499;stroke-width:1;stroke-linecap:butt;stroke-linejoin:miter;stroke-miterlimit:4;stroke-dasharray:none;stroke-opacity:1"
       d="m 84.237502,144.53475 c 0,0 -31.37229,31.47103 -52.179597,-21.60418 -40.8605344,-104.226911 52.179597,21.60418 52.179597,21.60418"
       id="path168034"
       sodipodi:nodetypes="csc" />
    <path
       style="fill:none;stroke:#d16499;stroke-width:1;stroke-linecap:butt;stroke-linejoin:miter;stroke-miterlimit:4;stroke-dasharray:none;stroke-opacity:1"
       d="m 117.86147,139.8632 c 0,0 53.64098,38.78973 62.65941,3.62493 C 216.1817,4.43886 117.86147,139.8632 117.86147,139.8632"
       id="path168262"
       sodipodi:nodetypes="csc" />
    <path
       style="fill:none;fill-opacity:1;stroke:#d16499;stroke-width:1;stroke-linecap:round;stroke-linejoin:round;stroke-miterlimit:4;stroke-dasharray:none;stroke-opacity:1;paint-order:markers fill stroke"
       d="m 84.237502,144.53475 c -47.547149,67.77378 -93.166448,9.84517 0,0"
       id="path169170"
       sodipodi:nodetypes="cc" />
    <path
       style="fill:none;fill-opacity:1;stroke:#d16499;stroke-width:1;stroke-linecap:round;stroke-linejoin:round;stroke-miterlimit:4;stroke-dasharray:none;stroke-opacity:1;paint-order:markers fill stroke"
       d="m 117.86147,139.8632 c 0,0 80.00726,35.47247 57.48094,43.24017 -22.52631,7.76769 -57.48094,-43.24017 -57.48094,-43.24017"
       id="path169226"
       sodipodi:nodetypes="csc" />
    <path
       style="fill:none;fill-opacity:1;stroke:#d16499;stroke-width:1;stroke-linecap:round;stroke-linejoin:round;stroke-miterlimit:4;stroke-dasharray:none;stroke-opacity:1;paint-order:markers fill stroke"
       d="m 82.337572,90.766384 c 0,0 -20.396337,-12.199257 -23.311093,-24.724057 -0.588464,-2.528646 3.228965,-8.632142 2.973626,-12.427539 -0.365639,-5.434903 -4.662501,-8.38103 -4.662501,-8.38103 0,0 4.945773,1.652409 6.179249,5.629549 1.1983,3.86372 -2.627236,11.253254 -1.439715,13.376781 1.494543,2.672544 5.176843,7.059664 5.176843,7.059664 0,0 3.812451,-0.959685 4.654548,-2.488205 0.842097,-1.52852 -0.302629,-6.399837 -0.302629,-6.399837 0,0 -4.120783,-4.358984 -3.185253,-7.179845 0.935529,-2.82086 4.802979,-2.493624 8.693793,-4.894747 3.890814,-2.401123 9.015531,-8.360844 14.474701,-9.755748 5.45917,-1.394904 11.226249,2.077417 16.281709,1.514085 5.05546,-0.563331 13.47283,-4.385218 13.47283,-4.385218 0,0 -7.93673,6.22995 -12.87861,7.393217 -4.94188,1.163267 -10.592169,-2.380248 -15.584827,-0.917006 -4.992657,1.463242 -9.139747,7.113266 -12.618153,9.180034 -3.478406,2.066768 -7.03852,0.840458 -7.83415,3.719635 -0.79563,2.879177 5.133292,7.695129 5.133292,7.695129 0,0 3.777409,-1.702741 4.245787,-3.245648 0.468378,-1.542907 -1.618785,-2.753912 -1.397744,-4.098572 0.221042,-1.34466 2.222386,-0.754674 2.341288,-3.051102 0.118901,-2.296428 -5.35555,-5.254951 -5.210298,-8.478086 0.145251,-3.223134 1.765423,-5.258917 5.626491,-7.539219 3.861068,-2.280302 11.192095,-0.09061 14.726985,-2.259329 3.534889,-2.168723 8.394019,-0.827127 8.394019,-0.827127 0,0 -3.49505,2.727735 -7.151679,3.832946 -3.65663,1.105211 -11.527788,-0.350922 -14.73916,1.405097 -3.211372,1.756019 -4.338526,2.757867 -4.415217,5.629963 -0.07669,2.872096 5.473782,5.890765 5.790506,8.255674 0.316724,2.364909 -1.388975,2.574388 -1.432883,3.982245 -0.04391,1.407857 1.654819,2.293524 1.178278,4.051187 -0.476541,1.757663 -4.870057,4.612497 -4.870057,4.612497 l 12.942743,3.375795 c 0,0 -2.757006,-13.030748 -1.447387,-17.25355 1.309617,-4.222802 5.234987,-4.293645 5.829927,-7.134009 0.59494,-2.840364 -2.00871,-4.719293 -2.20425,-7.897001 -0.19554,-3.177708 0.35363,-8.72755 1.62162,-10.782189 1.26799,-2.054639 2.928049,-2.064963 2.928049,-2.064963 0,0 -1.058629,2.964263 -1.329229,5.064577 -0.2706,2.100313 -0.71342,4.539958 0.003,7.46994 0.71642,2.929982 5.282489,6.120766 4.900329,9.430689 -0.38216,3.309923 -5.154129,3.617359 -6.097259,7.106398 -0.94313,3.489039 2.219449,12.12042 2.219449,12.12042 l 10.01668,-7.593446 28.3846,-13.780892 -18.14919,18.473908 39.20165,-15.615777 -29.7728,16.500408 52.27455,-17.205483 -58.29116,44.369159"
       id="path170604"
       sodipodi:nodetypes="csscssczccczzczzzzczzzzzzczzzzzzcczzzzczzzzcccccccc" />
    <circle
       style="font-variation-settings:normal;vector-effect:none;fill:none;fill-opacity:1;fill-rule:evenodd;stroke:#d16499;stroke-width:1;stroke-linecap:butt;stroke-linejoin:round;stroke-miterlimit:4;stroke-dasharray:none;stroke-dashoffset:0;stroke-opacity:1;-inkscape-stroke:none;stop-color:#000000"
       id="path926"
       cx="102.97547"
       cy="101.10933"
       r="22.305981" />
    <path
       style="fill:none;fill-opacity:1;stroke:#d16499;stroke-width:1;stroke-linecap:butt;stroke-linejoin:miter;stroke-miterlimit:4;stroke-dasharray:none;stroke-opacity:1"
       d="m 90.927995,120.03386 c 0,0 -15.206792,71.73083 -40.910467,73.77544"
       id="path996" />
    <path
       style="fill:none;fill-opacity:1;stroke:#d16499;stroke-width:1;stroke-linecap:butt;stroke-linejoin:miter;stroke-miterlimit:4;stroke-dasharray:none;stroke-opacity:1"
       d="m 119.42475,116.1506 c 0,0 -10.98978,72.40113 18.80312,77.07452"
       id="path998"
       sodipodi:nodetypes="cc" />
    <path
       style="fill:none;fill-opacity:1;stroke:#d16499;stroke-width:1;stroke-linecap:butt;stroke-linejoin:miter;stroke-miterlimit:4;stroke-dasharray:none;stroke-opacity:1"
       d="m 50.017528,193.8093 88.210342,-0.58418"
       id="path1588" />
    <ellipse
       style="font-variation-settings:normal;vector-effect:none;fill:none;fill-opacity:1;fill-rule:evenodd;stroke:#d16499;stroke-width:1;stroke-linecap:butt;stroke-linejoin:round;stroke-miterlimit:4;stroke-dasharray:none;stroke-dashoffset:0;stroke-opacity:1;-inkscape-stroke:none;stop-color:#000000"
       id="path1634"
       cx="95.948296"
       cy="93.252968"
       rx="4.4958496"
       ry="3.2556155" />
    <ellipse
       style="font-variation-settings:normal;vector-effect:none;fill:none;fill-opacity:1;fill-rule:evenodd;stroke:#d16499;stroke-width:1;stroke-linecap:butt;stroke-linejoin:round;stroke-miterlimit:4;stroke-dasharray:none;stroke-dashoffset:0;stroke-opacity:1;-inkscape-stroke:none;stop-color:#000000"
       id="path1636"
       cx="114.75852"
       cy="96.766968"
       rx="4.5992026"
       ry="3.8757327" />
    <path
       style="fill:none;fill-opacity:1;stroke:#d16499;stroke-width:1;stroke-linecap:butt;stroke-linejoin:miter;stroke-miterlimit:4;stroke-dasharray:none;stroke-opacity:1"
       d="m 68.921523,193.57849 -3.513998,36.24407"
       id="path23136" />
    <path
       style="fill:none;fill-opacity:1;stroke:#d16499;stroke-width:1;stroke-linecap:butt;stroke-linejoin:miter;stroke-miterlimit:4;stroke-dasharray:none;stroke-opacity:1"
       d="M 116.05043,193.64905 115.0169,227.7555"
       id="path23270" />
    <path
       style="fill:none;fill-opacity:1;stroke:#d16499;stroke-width:1;stroke-linecap:butt;stroke-linejoin:miter;stroke-miterlimit:4;stroke-dasharray:none;stroke-opacity:1"
       d="M 93.036028,153.25351 88.943464,176.6396"
       id="path126755" />
    <path
       style="fill:none;fill-opacity:1;stroke:#d16499;stroke-width:1;stroke-linecap:round;stroke-linejoin:round;stroke-miterlimit:4;stroke-dasharray:none;stroke-opacity:1;paint-order:markers fill stroke"
       d="m 93.036026,153.25351 13.593164,0.87698"
       id="path126955" />
    <path
       style="fill:none;fill-opacity:1;stroke:#d16499;stroke-width:1;stroke-linecap:round;stroke-linejoin:round;stroke-miterlimit:4;stroke-dasharray:none;stroke-opacity:1;paint-order:markers fill stroke"
       d="m 91.282071,163.77725 10.816059,2.63094"
       id="path126957" />
    <path
       style="fill:none;fill-opacity:1;stroke:#d16499;stroke-width:1;stroke-linecap:butt;stroke-linejoin:miter;stroke-miterlimit:4;stroke-dasharray:none;stroke-opacity:1"
       d="m 87.441342,106.86637 c 0,0 26.303308,16.17472 29.972328,3.87573"
       id="path149630" />
  </g>
</svg>
