<?xml version="1.0" encoding="UTF-8" standalone="no"?>
<!-- Created with Inkscape (http://www.inkscape.org/) -->

<svg
   width="247.011mm"
   height="56.867001mm"
   viewBox="0 0 247.011 56.867"
   version="1.1"
   id="svg1"
   inkscape:version="1.4.2 (ebf0e940d0, 2025-05-08)"
   sodipodi:docname="coralberry-fairy-logo-light.svg"
   xmlns:inkscape="http://www.inkscape.org/namespaces/inkscape"
   xmlns:sodipodi="http://sodipodi.sourceforge.net/DTD/sodipodi-0.dtd"
   xmlns="http://www.w3.org/2000/svg"
   xmlns:svg="http://www.w3.org/2000/svg">
  <sodipodi:namedview
     id="namedview1"
     pagecolor="#ffffff"
     bordercolor="#000000"
     borderopacity="0.25"
     inkscape:showpageshadow="2"
     inkscape:pageopacity="0.0"
     inkscape:pagecheckerboard="0"
     inkscape:deskcolor="#d1d1d1"
     inkscape:document-units="mm"
     inkscape:zoom="0.67793911"
     inkscape:cx="249.28492"
     inkscape:cy="373.92739"
     inkscape:window-width="1920"
     inkscape:window-height="975"
     inkscape:window-x="0"
     inkscape:window-y="0"
     inkscape:window-maximized="1"
     inkscape:current-layer="layer1" />
  <defs
     id="defs1" />
  <g
     inkscape:label="Layer 1"
     inkscape:groupmode="layer"
     id="layer1"
     transform="translate(-39.009013,-49.688723)">
    <path
       d="m 71.582449,58.335633 q 0,1.9304 -1.4732,3.4544 -1.4224,1.524 -3.2004,1.524 -1.6256,0 -2.794,-0.8636 -1.3208,-0.8636 -1.3208,-2.286 0,-0.5588 0.3556,-1.27 0.508,-0.9652 1.4732,-0.9652 -0.0508,1.27 -0.0508,2.54 0.1016,1.8288 1.8288,1.8288 1.6256,0 2.54,-1.1176 0.8128,-0.9652 0.8128,-2.4892 0,-1.9304 -1.6764,-3.0988 -1.3716,-0.9652 -2.9972,-0.9652 -5.1308,0 -10.5156,4.9276 -4.7244,4.318 -7.874,10.5156 -3.1496,6.1976 -2.794,10.16 0.254,2.4384 1.778,4.2672 1.7272,2.0828 4.2164,2.0828 3.5052,0 6.7056,-2.3368 3.5052,-2.5908 3.5052,-6.1468 0,-1.2192 -0.6096,-2.286 -0.762,-1.3208 -2.1844,-1.3208 -1.0668,0 -1.8288,0.7112 -0.762,0.6604 -0.762,1.7272 0,1.5748 0.5588,2.1844 -0.4064,0.508 -0.8128,0.508 -0.762,0 -1.4224,-0.7112 -0.6096,-0.762 -0.6096,-1.4224 0,-1.6764 1.6764,-2.9972 1.524,-1.1176 2.8448,-1.1176 1.9812,0 3.7084,1.27 1.8796,1.4224 1.8288,3.3528 -0.1016,4.318 -5.2324,7.2644 -4.2672,2.54 -7.5692,2.286 -3.81,-0.254 -6.096,-3.556 -2.0828,-2.9464 -2.0828,-6.8072 0,-5.6388 3.9624,-11.3284 3.6576,-5.2832 9.3472,-8.7884 5.6896,-3.556 10.8204,-3.7084 2.4892,-0.0508 4.2164,1.3208 1.7272,1.3208 1.7272,3.6576 z m 9.855199,13.97 q -0.1016,0 0.0508,0.4064 0.1016,0.508 -0.1524,0.6096 -1.4224,0.6096 -3.1496,1.6764 -1.6764,1.016 -1.7272,1.3716 -0.3048,3.7592 -2.844799,7.1628 -2.7432,3.7592 -6.1468,4.0132 -4.1148,0.3048 -4.1148,-4.9276 0,-1.4732 0.3556,-2.6924 4.8768,-7.9248 9.1948,-7.9248 1.0668,0 2.184399,1.016 0.9652,0.8636 1.4732,1.9812 1.7272,-1.0668 4.8768,-2.6924 z m -6.2992,3.4036 q 0.1016,-0.254 0.1016,-0.4572 0,-0.762 -0.8636,-1.4732 -0.660399,-0.6096 -1.015999,-0.6096 -1.3208,0 -1.3208,1.778 0,0.3556 0.7112,0.7112 0.7112,0.3556 1.1176,0.3556 0.2032,0 0.660399,-0.1524 0.4572,-0.1524 0.6096,-0.1524 z m 0.1524,1.1684 q -1.422399,0.6604 -1.574799,0.7112 0,0 -0.8128,0 -2.54,0 -2.9464,-2.5908 -1.0668,0.9144 -2.4892,3.3528 -1.6764,2.8956 -1.5748,4.7244 0.2032,3.2004 2.4384,3.2004 2.4892,0 4.7752,-3.6068 2.031999,-3.1496 2.184399,-5.7912 z m 17.830851,-3.4544 q -1.4224,0.4572 -3.7592,1.778 -0.1524,0.1016 -0.9652,-0.4572 -0.762,-0.5588 -1.016,-0.5588 -1.27,0.1016 -2.1844,0.762 -0.6096,0.4572 -1.778,1.8288 -0.8128,0.9652 -2.6924,4.2164 -1.7272,2.9464 -3.048,4.2164 -2.032,1.9812 -4.572,1.9812 1.27,-1.0668 4.8768,-6.6548 3.6576,-5.6388 3.6576,-6.858 0,-0.9652 -1.016,-0.9652 l 0.0508,-1.5748 q 0.6096,0 1.9812,0.8128 0.4572,0.4064 1.0668,1.4224 0.6096,0.9652 0.762,0.9652 -0.1524,0 1.8288,-1.1684 2.032,-1.1684 3.8608,-1.1684 0.762,0 1.7272,0.3556 1.2192,0.4064 1.2192,1.0668 z m 12.090411,8.636 -0.6604,2.1844 q -1.2192,1.0668 -2.4384,2.0828 -1.2192,1.016 -3.200402,1.016 -1.016,0 -1.4224,-0.9652 -0.4064,-1.016 -0.508,-1.016 0.0508,0 -1.4224,1.0668 -1.4732,1.0668 -2.6924,1.0668 -1.4732,0 -3.0988,-1.3716 -1.5748,-1.4224 -1.5748,-2.8956 0,-3.302 2.8956,-7.2136 3.1496,-4.2672 6.6548,-4.2672 2.489202,0 4.013202,1.9812 0.2032,-0.0508 1.1684,-0.762 0.9652,-0.762 1.9304,-0.8636 -1.27,2.2352 -2.794,5.4864 -2.387602,5.2324 -2.387602,7.4168 0,0.508 1.270002,0.6604 1.2192,0.0508 4.2672,-3.6068 z m -5.08,-6.7056 q 0,-2.5908 -2.235202,-2.5908 -3.0988,0 -5.08,3.8608 -1.6256,3.2004 -1.524,5.842 0.1524,3.302 2.6924,3.302 2.1844,0 4.318,-4.6736 1.828802,-3.9624 1.828802,-5.7404 z m 20.47237,-2.1336 q -2.286,2.2352 -5.2324,6.2484 -2.8956,4.0132 -5.08,6.1468 -1.1176,1.0668 -2.54,1.6764 -0.7112,0.2032 -1.4224,-0.1016 -1.6256,-0.7112 -1.27,-6.1468 0.508,-2.2352 1.0668,-4.5212 0.6096,-2.5908 1.4732,-4.318 4.5212,-9.2964 8.636,-14.1224 2.1336,-2.4892 3.1496,-2.4892 1.0668,0 1.0668,1.524 0,2.794 -2.5908,7.4676 -1.3716,2.4892 -5.2832,8.382 -1.6764,2.286 -3.302,4.572 -1.6256,2.2352 -1.8288,3.7084 -0.2032,1.4224 -0.0508,2.794 0.1016,1.6256 0.6604,1.6256 0.7112,0 3.048,-2.8448 1.524,-1.8288 2.9972,-3.6068 0.254,-0.2032 3.2512,-3.8608 1.5748,-1.8796 3.2512,-2.1336 z m -1.3716,-16.0528 q -2.1844,0.254 -5.9944,7.7216 -3.7592,7.4676 -3.8608,11.0236 2.8956,-3.6068 6.2484,-9.6012 3.8608,-6.9088 3.6068,-9.144 z m 17.11961,-0.6604 q -4.7752,6.8072 -10.1092,18.6436 2.286,-1.7272 3.0988,-2.1844 1.5748,-0.9144 3.048,-0.9144 2.8448,0 2.8448,2.3876 0,3.6576 -4.2164,8.1788 -4.2164,4.4704 -7.62,4.4704 -1.1176,0 -2.286,-0.762 -1.5748,-0.9652 -1.7272,-2.5908 2.8956,-5.9436 5.7912,-11.8364 3.8608,-7.874 5.7912,-11.176 0.1016,-0.3048 -0.508,-0.3048 -0.1016,0 -0.6604,0.0508 -0.508,0.0508 -1.1176,0.0508 0.0508,-0.0508 0.1016,-0.1524 v 0 q -0.1016,-0.1524 0.2032,-0.6096 2.286,-0.5588 3.6576,-1.3716 1.1684,-0.8636 3.4544,-2.5908 z m -3.556,19.7612 q 0,-1.9812 -2.3876,-1.9812 -2.8448,0 -5.6388,4.3688 -2.4384,3.7592 -2.4384,5.9436 0,1.3208 1.7272,1.3208 2.8448,0 5.8928,-3.7084 2.8448,-3.5052 2.8448,-5.9436 z m 14.52882,-4.064 q -0.2032,2.3876 -2.6416,4.826 -1.3208,1.3208 -4.4196,3.6068 -2.3876,1.7272 -2.3876,2.286 -0.1016,1.3716 0.7112,2.286 0.8636,0.8636 1.778,0.8636 1.8288,0 3.4036,-1.6764 0.1524,0.1016 0.4572,0.3556 -0.254,0.9652 -2.2352,1.8796 -1.778,0.8636 -3.0988,0.8636 -1.6256,0 -2.8448,-1.5748 -1.0668,-1.3716 -1.1176,-2.8956 -0.1016,-0.4572 -0.1016,-1.016 0,-3.556 3.3528,-7.366 3.4036,-3.8608 6.9088,-3.8608 0.7112,0 2.2352,1.4224 z m -2.6416,0.9652 q 0,-0.254 -0.3048,-0.6096 -0.3048,-0.3556 -0.5588,-0.3556 -1.6256,0 -3.8608,3.1496 -2.1844,3.0988 -2.1336,4.6228 v 1.0668 q 2.286,-0.9652 4.4196,-3.302 2.4384,-2.54 2.4384,-4.572 z m 18.03403,0.254 q -1.4224,0.4572 -3.7592,1.778 -0.1524,0.1016 -0.9652,-0.4572 -0.762,-0.5588 -1.016,-0.5588 -1.27,0.1016 -2.1844,0.762 -0.6096,0.4572 -1.778,1.8288 -0.8128,0.9652 -2.6924,4.2164 -1.7272,2.9464 -3.048,4.2164 -2.032,1.9812 -4.572,1.9812 1.27,-1.0668 4.8768,-6.6548 3.6576,-5.6388 3.6576,-6.858 0,-0.9652 -1.016,-0.9652 l 0.0508,-1.5748 q 0.6096,0 1.9812,0.8128 0.4572,0.4064 1.0668,1.4224 0.6096,0.9652 0.762,0.9652 -0.1524,0 1.8288,-1.1684 2.032,-1.1684 3.8608,-1.1684 0.762,0 1.7272,0.3556 1.2192,0.4064 1.2192,1.0668 z m 13.91921,0 q -1.4224,0.4572 -3.7592,1.778 -0.1524,0.1016 -0.9652,-0.4572 -0.762,-0.5588 -1.016,-0.5588 -1.27,0.1016 -2.1844,0.762 -0.6096,0.4572 -1.778,1.8288 -0.8128,0.9652 -2.6924,4.2164 -1.7272,2.9464 -3.048,4.2164 -2.032,1.9812 -4.572,1.9812 1.27,-1.0668 4.8768,-6.6548 3.6576,-5.6388 3.6576,-6.858 0,-0.9652 -1.016,-0.9652 l 0.0508,-1.5748 q 0.6096,0 1.9812,0.8128 0.4572,0.4064 1.0668,1.4224 0.6096,0.9652 0.762,0.9652 -0.1524,0 1.8288,-1.1684 2.032,-1.1684 3.8608,-1.1684 0.762,0 1.7272,0.3556 1.2192,0.4064 1.2192,1.0668 z m 14.32561,-0.8128 q -2.0828,0.1016 -7.366,8.2804 -6.9596,10.7696 -11.176,15.0876 -7.9248,8.077197 -16.4592,8.077197 -4.826,0 -8.0264,-1.8288 -3.6068,-2.1336 -3.2004,-5.740397 0,0 0.3048,-0.9652 0.254,0.8636 0.508,1.778 0.254,0.9144 0.7112,1.524 0.762,1.0668 2.7432,2.438397 2.1844,1.5748 3.302,1.5748 h 5.1816 q 8.9916,0 18.0848,-13.563597 1.016,-1.524 1.1684,-3.1496 0.1016,-1.016 -1.4732,-6.5532 -1.524,-5.588 -2.0828,-6.2992 -0.0508,-0.1016 -0.8636,-0.7112 -0.1524,-0.1016 -0.3048,-0.3048 h 4.8768 q -0.0508,0.1524 -0.508,0.8636 -0.4064,0.7112 -0.4064,0.8128 l 2.5908,8.89 1.016,0.0508 6.6548,-10.4648 4.7244,0.1016 q 0.1524,0.0508 0,0.1016 z m 52.83207,-17.9324 q 0,1.778 -2.7432,2.6924 -2.3876,0.8128 -4.1656,0.5588 l -10.668,-1.4732 q -1.9304,0.3556 -4.064,4.6736 -1.778,3.6576 -1.778,4.826 0,0.5588 0.9652,0.4572 1.2192,-0.1016 3.7084,-1.1176 -0.254,0.4572 -1.4732,1.7272 -1.524,1.6256 -1.9812,2.1844 -0.1524,-0.508 -0.3556,-1.0668 -0.4572,-1.0668 -1.524,-1.0668 -1.3716,3.7592 -2.54,6.4516 -3.048,7.0104 -5.4356,9.5504 0.7112,0.9144 1.4224,1.5748 0.7112,0.6604 2.794,0.6604 1.9304,-0.4064 1.9304,-1.1176 0,-0.1524 -0.0508,-0.254 0,0 -0.1016,-0.1524 -0.4064,0 -0.7112,0 -0.6604,0.0508 -0.6604,-0.6604 0,-0.4064 0.4064,-0.8128 0.4572,-0.4064 0.7112,-0.4064 0.6604,0 1.3208,0.7112 0.7112,0.7112 0.7112,1.2192 0,1.1176 -1.778,2.1336 -1.524,0.9144 -2.5908,0.9144 -0.762,0 -1.4732,0 0,0 -0.4572,-0.3048 -0.9652,-0.6096 -2.54,-0.7112 -0.81279,-0.1016 -1.01599,-0.4572 0.0508,0.0508 -1.5748,0.9144 -1.778,0.9144 -3.6068,0.9144 -3.9624,0 -3.9624,-2.4892 0,-1.5748 1.6764,-2.5908 1.4224,-0.8636 2.794,-0.8636 1.0668,0 4.7752,1.1176 1.72719,-3.0988 4.31799,-9.3472 2.5908,-6.2484 4.1148,-9.0932 2.6416,-4.7752 5.9944,-7.874 -0.8128,-0.508 -2.286,-0.6096 -1.8796,-0.1016 -2.5908,-0.3048 -1.4732,0 -2.1844,-0.0508 -0.7112,-0.1016 -0.6604,-0.1016 -1.5748,0 -2.9464,0.7112 -1.9304,1.016 -1.9304,2.8956 0,1.9304 2.1844,1.9304 1.3208,0 1.4224,-1.1684 0.1016,-1.2192 0.5588,-1.2192 1.3716,0 1.3716,1.3208 0,0.8636 -1.1176,1.6256 -1.1176,0.7112 -1.9304,0.7112 -0.9144,0 -2.1336,-0.8128 -1.3716,-0.9144 -1.3716,-1.8796 0,-5.842 7.9756,-5.6896 l 7.2136,0.1524 q 1.27,0.0508 5.588,1.3716 4.4196,1.3208 7.2644,1.3208 3.3528,0 4.4704,-1.6256 -0.508,-0.6096 -0.9144,-0.6096 -0.6604,0 -1.4224,0.8128 -0.9652,-0.6096 -0.9652,-1.4224 0,-0.3556 0.762,-0.8636 0.6096,-0.4064 0.9652,-0.4064 0.9652,0 1.6256,0.8128 0.6604,0.8128 0.6604,1.6764 z m -35.76319,29.6164 q -2.54,-1.6764 -4.4704,-1.6764 -1.9304,0 -1.9304,1.8796 0,1.6256 2.4892,1.6256 1.1684,0 2.3876,-0.5588 1.27,-0.5588 1.524,-1.27 z m 33.32478,-2.2352 -0.6604,2.1844 q -1.2192,1.0668 -2.4384,2.0828 -1.2192,1.016 -3.2004,1.016 -1.016,0 -1.4224,-0.9652 -0.4064,-1.016 -0.508,-1.016 0.0508,0 -1.4224,1.0668 -1.4732,1.0668 -2.6924,1.0668 -1.4732,0 -3.0988,-1.3716 -1.5748,-1.4224 -1.5748,-2.8956 0,-3.302 2.8956,-7.2136 3.1496,-4.2672 6.6548,-4.2672 2.4892,0 4.0132,1.9812 0.2032,-0.0508 1.1684,-0.762 0.9652,-0.762 1.9304,-0.8636 -1.27,2.2352 -2.794,5.4864 -2.3876,5.2324 -2.3876,7.4168 0,0.508 1.27,0.6604 1.2192,0.0508 4.2672,-3.6068 z m -5.08,-6.7056 q 0,-2.5908 -2.2352,-2.5908 -3.0988,0 -5.08,3.8608 -1.6256,3.2004 -1.524,5.842 0.1524,3.302 2.6924,3.302 2.1844,0 4.318,-4.6736 1.8288,-3.9624 1.8288,-5.7404 z m 17.57677,-12.7 q -0.2032,0.8128 -0.254,1.5748 0,0.508 0.0508,1.1684 0.1016,0.6604 0.1016,0.762 -1.1684,0.6604 -2.8448,1.8288 0.1524,-1.2192 0.0508,-1.6256 0,-0.1016 -0.5588,-1.3716 z m -2.8956,9.0932 -6.7564,12.192 q -0.1524,1.6764 1.0668,1.6764 1.016,0 5.6388,-3.9624 -0.6604,1.6764 -0.6604,2.0828 -1.2192,0.9144 -3.1496,2.286 -2.0828,1.1684 -3.4544,1.1684 -1.524,0 -2.286,-0.8636 -0.4572,-0.5588 -0.4572,-1.2192 0,0.0508 0.3048,-1.6256 1.2192,-1.9812 5.1816,-8.3312 1.1684,-2.1844 1.1684,-2.4892 0,-0.1524 -0.3048,-0.4572 -0.254,-0.3048 -0.254,-0.4572 z m 18.08478,1.6764 q -1.4224,0.4572 -3.7592,1.778 -0.1524,0.1016 -0.9652,-0.4572 -0.762,-0.5588 -1.016,-0.5588 -1.27,0.1016 -2.1844,0.762 -0.6096,0.4572 -1.778,1.8288 -0.8128,0.9652 -2.6924,4.2164 -1.7272,2.9464 -3.048,4.2164 -2.032,1.9812 -4.572,1.9812 1.27,-1.0668 4.8768,-6.6548 3.6576,-5.6388 3.6576,-6.858 0,-0.9652 -1.016,-0.9652 l 0.0508,-1.5748 q 0.6096,0 1.9812,0.8128 0.4572,0.4064 1.0668,1.4224 0.6096,0.9652 0.762,0.9652 -0.1524,0 1.8288,-1.1684 2.032,-1.1684 3.8608,-1.1684 0.762,0 1.7272,0.3556 1.2192,0.4064 1.2192,1.0668 z m 14.3256,-0.8128 q -2.0828,0.1016 -7.366,8.2804 -6.9596,10.7696 -11.176,15.0876 -7.9248,8.077197 -16.4592,8.077197 -4.826,0 -8.0264,-1.8288 -3.6068,-2.1336 -3.2004,-5.740397 0,0 0.3048,-0.9652 0.254,0.8636 0.508,1.778 0.254,0.9144 0.7112,1.524 0.762,1.0668 2.7432,2.438397 2.1844,1.5748 3.302,1.5748 h 5.1816 q 8.9916,0 18.0848,-13.563597 1.016,-1.524 1.1684,-3.1496 0.1016,-1.016 -1.4732,-6.5532 -1.524,-5.588 -2.0828,-6.2992 -0.0508,-0.1016 -0.8636,-0.7112 -0.1524,-0.1016 -0.3048,-0.3048 h 4.8768 q -0.0508,0.1524 -0.508,0.8636 -0.4064,0.7112 -0.4064,0.8128 l 2.5908,8.89 1.016,0.0508 6.6548,-10.4648 4.7244,0.1016 q 0.1524,0.0508 0,0.1016 z"
       id="text1"
       style="font-size:50.8px;font-family:'Daresiel Demo';-inkscape-font-specification:'Daresiel Demo';stroke-width:0.264583"
       aria-label="Coralberry Fairy" />
  </g>
</svg>
