<?xml version="1.0" encoding="UTF-8" standalone="no"?>
<!-- Created with Inkscape (http://www.inkscape.org/) -->

<svg
   width="210mm"
   height="297mm"
   viewBox="0 0 210 297"
   version="1.1"
   id="svg5"
   sodipodi:docname="coralberry-fairy-light-v1.svg"
   inkscape:version="1.1.1 (3bf5ae0d25, 2021-09-20)"
   xmlns:inkscape="http://www.inkscape.org/namespaces/inkscape"
   xmlns:sodipodi="http://sodipodi.sourceforge.net/DTD/sodipodi-0.dtd"
   xmlns="http://www.w3.org/2000/svg"
   xmlns:svg="http://www.w3.org/2000/svg">
  <sodipodi:namedview
     id="namedview7"
     pagecolor="#505050"
     bordercolor="#eeeeee"
     borderopacity="1"
     inkscape:pageshadow="0"
     inkscape:pageopacity="0"
     inkscape:pagecheckerboard="0"
     inkscape:document-units="mm"
     showgrid="false"
     inkscape:zoom="0.51093025"
     inkscape:cx="32.294036"
     inkscape:cy="450.1593"
     inkscape:window-width="1920"
     inkscape:window-height="979"
     inkscape:window-x="0"
     inkscape:window-y="32"
     inkscape:window-maximized="1"
     inkscape:current-layer="layer1" />
  <defs
     id="defs2" />
  <g
     inkscape:groupmode="layer"
     id="layer2"
     inkscape:label="layer-0">
    <rect
       style="fill:#ffffff;fill-opacity:1;stroke:#000000;stroke-width:1.11864;stroke-linecap:round;stroke-linejoin:round;stroke-miterlimit:4;stroke-dasharray:none;stroke-opacity:1;paint-order:markers fill stroke"
       id="rect149759"
       width="190.16927"
       height="271.59631"
       x="9.9153671"
       y="12.701843"
       ry="3.3822379" />
  </g>
  <g
     inkscape:label="Layer 1"
     inkscape:groupmode="layer"
     id="layer1">
    <text
       xml:space="preserve"
       style="font-style:normal;font-variant:normal;font-weight:normal;font-stretch:normal;font-size:35.2778px;line-height:1.25;font-family:'Daresiel Demo';-inkscape-font-specification:'Daresiel Demo';fill:#000000;fill-opacity:1;stroke:none;stroke-width:0.264583"
       x="17.238035"
       y="266.45126"
       id="text26728"><tspan
         sodipodi:role="line"
         id="tspan26726"
         style="font-style:normal;font-variant:normal;font-weight:normal;font-stretch:normal;font-size:35.2778px;font-family:'Daresiel Demo';-inkscape-font-specification:'Daresiel Demo';stroke-width:0.264583"
         x="17.238035"
         y="266.45126">Correlberry Fairy</tspan></text>
    <text
       xml:space="preserve"
       style="font-style:normal;font-weight:normal;font-size:10.5833px;line-height:1.25;font-family:sans-serif;fill:#000000;fill-opacity:1;stroke:none;stroke-width:0.264583"
       x="87.643227"
       y="216.95355"
       id="text50270"><tspan
         sodipodi:role="line"
         id="tspan50268"
         style="stroke-width:0.264583"
         x="87.643227"
         y="216.95355" /></text>
    <text
       xml:space="preserve"
       style="font-style:normal;font-weight:normal;font-size:10.5833px;line-height:1.25;font-family:sans-serif;fill:#000000;fill-opacity:1;stroke:none;stroke-width:0.264583"
       x="14.882812"
       y="190.58269"
       id="text144841"><tspan
         sodipodi:role="line"
         id="tspan144839"
         style="stroke-width:0.264583"></tspan></text>
    <g
       id="g195563"
       transform="translate(-6.9394792,32.669018)">
      <path
         style="fill:none;stroke:#c62f78;stroke-width:1;stroke-linecap:butt;stroke-linejoin:miter;stroke-miterlimit:4;stroke-dasharray:none;stroke-opacity:1"
         d="m 91.176981,111.86573 c 0,0 -31.37229,31.47103 -52.179597,-21.60418 -40.8605342,-104.226909 52.179597,21.60418 52.179597,21.60418"
         id="path168034"
         sodipodi:nodetypes="csc" />
      <path
         style="fill:none;stroke:#c62f78;stroke-width:1;stroke-linecap:butt;stroke-linejoin:miter;stroke-miterlimit:4;stroke-dasharray:none;stroke-opacity:1"
         d="m 124.80095,107.19418 c 0,0 53.64098,38.78973 62.65941,3.62493 35.66082,-139.049268 -62.65941,-3.62493 -62.65941,-3.62493"
         id="path168262"
         sodipodi:nodetypes="csc" />
      <path
         style="fill:none;fill-opacity:1;stroke:#c62f78;stroke-width:1;stroke-linecap:round;stroke-linejoin:round;stroke-miterlimit:4;stroke-dasharray:none;stroke-opacity:1;paint-order:markers fill stroke"
         d="m 91.176981,111.86573 c -47.547149,67.77378 -93.1664478,9.84517 0,0"
         id="path169170"
         sodipodi:nodetypes="cc" />
      <path
         style="fill:none;fill-opacity:1;stroke:#c62f78;stroke-width:1;stroke-linecap:round;stroke-linejoin:round;stroke-miterlimit:4;stroke-dasharray:none;stroke-opacity:1;paint-order:markers fill stroke"
         d="m 124.80095,107.19418 c 0,0 80.00726,35.47247 57.48094,43.24017 -22.52631,7.76769 -57.48094,-43.24017 -57.48094,-43.24017"
         id="path169226"
         sodipodi:nodetypes="csc" />
      <path
         style="fill:none;fill-opacity:1;stroke:#c62f78;stroke-width:1;stroke-linecap:round;stroke-linejoin:round;stroke-miterlimit:4;stroke-dasharray:none;stroke-opacity:1;paint-order:markers fill stroke"
         d="m 89.277051,58.097366 c 0,0 -20.396337,-12.199257 -23.311093,-24.724057 -0.588464,-2.528646 3.228965,-8.632142 2.973626,-12.427539 -0.365639,-5.434903 -4.662501,-8.38103 -4.662501,-8.38103 0,0 4.945773,1.652409 6.179249,5.629549 1.1983,3.86372 -2.627236,11.253254 -1.439715,13.376781 1.494543,2.672544 5.176843,7.059664 5.176843,7.059664 0,0 3.812451,-0.959685 4.654548,-2.488205 0.842097,-1.52852 -0.302629,-6.399837 -0.302629,-6.399837 0,0 -4.120783,-4.358984 -3.185253,-7.179845 0.935529,-2.82086 4.802979,-2.493624 8.693793,-4.894747 3.890814,-2.401123 9.015531,-8.3608438 14.474701,-9.7557482 5.45917,-1.3949043 11.22625,2.0774172 16.28171,1.5140856 5.05546,-0.5633316 13.47283,-4.3852182 13.47283,-4.3852182 0,0 -7.93673,6.2299498 -12.87861,7.3932168 -4.94188,1.163267 -10.59217,-2.380248 -15.584828,-0.917006 -4.992657,1.463242 -9.139747,7.113266 -12.618153,9.180034 -3.478406,2.066768 -7.03852,0.840458 -7.83415,3.719635 -0.79563,2.879177 5.133292,7.695129 5.133292,7.695129 0,0 3.777409,-1.702741 4.245787,-3.245648 0.468378,-1.542907 -1.618785,-2.753912 -1.397744,-4.098572 0.221042,-1.34466 2.222386,-0.754674 2.341288,-3.051102 0.118901,-2.296428 -5.35555,-5.254951 -5.210298,-8.478086 0.145251,-3.223134 1.765423,-5.2589167 5.626491,-7.5392187 3.861068,-2.280302 11.192095,-0.090605 14.726985,-2.2593289 3.53489,-2.1687238 8.39402,-0.8271273 8.39402,-0.8271273 0,0 -3.49505,2.727735 -7.15168,3.832946 -3.65663,1.105211 -11.527788,-0.3509219 -14.73916,1.4050969 -3.211372,1.7560188 -4.338526,2.757867 -4.415217,5.629963 -0.07669,2.872096 5.473782,5.890765 5.790506,8.255674 0.316724,2.364909 -1.388975,2.574388 -1.432883,3.982245 -0.04391,1.407857 1.654819,2.293524 1.178278,4.051187 -0.476541,1.757663 -4.870057,4.612497 -4.870057,4.612497 l 12.942743,3.375795 c 0,0 -2.757006,-13.030748 -1.447387,-17.25355 1.309617,-4.222802 5.234987,-4.293645 5.829927,-7.134009 0.59494,-2.840364 -2.00871,-4.719293 -2.20425,-7.897001 -0.19554,-3.177708 0.35363,-8.7275499 1.62162,-10.7821888 1.26799,-2.0546389 2.92805,-2.064963 2.92805,-2.064963 0,0 -1.05863,2.9642624 -1.32923,5.0645763 -0.2706,2.10031393 -0.71342,4.5399588 0.003,7.4699405 0.71642,2.9299817 5.28249,6.120766 4.90033,9.430689 -0.38216,3.309923 -5.15413,3.617359 -6.09726,7.106398 -0.94313,3.489039 2.21945,12.12042 2.21945,12.12042 l 10.01668,-7.593446 28.3846,-13.780892 -18.14919,18.473908 39.20165,-15.615777 -29.7728,16.500408 52.27455,-17.205483 -58.29116,44.369159"
         id="path170604"
         sodipodi:nodetypes="csscssczccczzczzzzczzzzzzczzzzzzcczzzzczzzzcccccccc" />
      <circle
         style="font-variation-settings:normal;vector-effect:none;fill:none;fill-opacity:1;fill-rule:evenodd;stroke:#c62f78;stroke-width:1;stroke-linecap:butt;stroke-linejoin:round;stroke-miterlimit:4;stroke-dasharray:none;stroke-dashoffset:0;stroke-opacity:1;-inkscape-stroke:none;stop-color:#000000"
         id="path926"
         cx="109.91495"
         cy="68.440308"
         r="22.305981" />
      <path
         style="fill:none;fill-opacity:1;stroke:#c62f78;stroke-width:1;stroke-linecap:butt;stroke-linejoin:miter;stroke-miterlimit:4;stroke-dasharray:none;stroke-opacity:1"
         d="m 97.867474,87.364847 c 0,0 -15.206792,71.730823 -40.910467,73.775433"
         id="path996" />
      <path
         style="fill:none;fill-opacity:1;stroke:#c62f78;stroke-width:1;stroke-linecap:butt;stroke-linejoin:miter;stroke-miterlimit:4;stroke-dasharray:none;stroke-opacity:1"
         d="m 126.36423,83.481582 c 0,0 -10.98978,72.401128 18.80312,77.074518"
         id="path998"
         sodipodi:nodetypes="cc" />
      <path
         style="fill:none;fill-opacity:1;stroke:#c62f78;stroke-width:1;stroke-linecap:butt;stroke-linejoin:miter;stroke-miterlimit:4;stroke-dasharray:none;stroke-opacity:1"
         d="M 56.957007,161.14028 145.16735,160.5561"
         id="path1588" />
      <ellipse
         style="font-variation-settings:normal;vector-effect:none;fill:none;fill-opacity:1;fill-rule:evenodd;stroke:#c62f78;stroke-width:1;stroke-linecap:butt;stroke-linejoin:round;stroke-miterlimit:4;stroke-dasharray:none;stroke-dashoffset:0;stroke-opacity:1;-inkscape-stroke:none;stop-color:#000000"
         id="path1634"
         cx="102.88777"
         cy="60.583946"
         rx="4.4958496"
         ry="3.2556155" />
      <ellipse
         style="font-variation-settings:normal;vector-effect:none;fill:none;fill-opacity:1;fill-rule:evenodd;stroke:#c62f78;stroke-width:1;stroke-linecap:butt;stroke-linejoin:round;stroke-miterlimit:4;stroke-dasharray:none;stroke-dashoffset:0;stroke-opacity:1;-inkscape-stroke:none;stop-color:#000000"
         id="path1636"
         cx="121.698"
         cy="64.097946"
         rx="4.5992026"
         ry="3.8757327" />
      <path
         style="fill:none;fill-opacity:1;stroke:#c62f78;stroke-width:1;stroke-linecap:butt;stroke-linejoin:miter;stroke-miterlimit:4;stroke-dasharray:none;stroke-opacity:1"
         d="m 75.861002,160.90947 -3.513998,36.24407"
         id="path23136" />
      <path
         style="fill:none;fill-opacity:1;stroke:#c62f78;stroke-width:1;stroke-linecap:butt;stroke-linejoin:miter;stroke-miterlimit:4;stroke-dasharray:none;stroke-opacity:1"
         d="m 122.98991,160.98003 -1.03353,34.10645"
         id="path23270" />
      <path
         style="fill:none;fill-opacity:1;stroke:#c62f78;stroke-width:1;stroke-linecap:butt;stroke-linejoin:miter;stroke-miterlimit:4;stroke-dasharray:none;stroke-opacity:1"
         d="m 99.975507,120.58449 -4.092564,23.38609"
         id="path126755" />
      <path
         style="fill:none;fill-opacity:1;stroke:#c62f78;stroke-width:1;stroke-linecap:round;stroke-linejoin:round;stroke-miterlimit:4;stroke-dasharray:none;stroke-opacity:1;paint-order:markers fill stroke"
         d="m 99.975505,120.58449 13.593165,0.87698"
         id="path126955" />
      <path
         style="fill:none;fill-opacity:1;stroke:#c62f78;stroke-width:1;stroke-linecap:round;stroke-linejoin:round;stroke-miterlimit:4;stroke-dasharray:none;stroke-opacity:1;paint-order:markers fill stroke"
         d="m 98.22155,131.10823 10.81606,2.63094"
         id="path126957" />
      <path
         style="fill:none;fill-opacity:1;stroke:#c62f78;stroke-width:1;stroke-linecap:butt;stroke-linejoin:miter;stroke-miterlimit:4;stroke-dasharray:none;stroke-opacity:1"
         d="m 94.380821,74.197352 c 0,0 26.303309,16.174722 29.972329,3.875733"
         id="path149630" />
    </g>
  </g>
</svg>
