<?xml version="1.0" encoding="UTF-8" standalone="no"?>
<!-- Created with Inkscape (http://www.inkscape.org/) -->

<svg
   width="36.074001mm"
   height="40.493mm"
   viewBox="0 0 36.074001 40.492999"
   version="1.1"
   id="svg1"
   inkscape:version="1.4.2 (ebf0e940d0, 2025-05-08)"
   sodipodi:docname="coralberry-c.svg"
   xmlns:inkscape="http://www.inkscape.org/namespaces/inkscape"
   xmlns:sodipodi="http://sodipodi.sourceforge.net/DTD/sodipodi-0.dtd"
   xmlns="http://www.w3.org/2000/svg"
   xmlns:svg="http://www.w3.org/2000/svg">
  <sodipodi:namedview
     id="namedview1"
     pagecolor="#ffffff"
     bordercolor="#000000"
     borderopacity="0.25"
     inkscape:showpageshadow="2"
     inkscape:pageopacity="0.0"
     inkscape:pagecheckerboard="0"
     inkscape:deskcolor="#d1d1d1"
     inkscape:document-units="mm"
     inkscape:zoom="0.67793911"
     inkscape:cx="203.5581"
     inkscape:cy="213.14598"
     inkscape:window-width="1920"
     inkscape:window-height="975"
     inkscape:window-x="0"
     inkscape:window-y="0"
     inkscape:window-maximized="1"
     inkscape:current-layer="layer1" />
  <defs
     id="defs1" />
  <g
     inkscape:label="Layer 1"
     inkscape:groupmode="layer"
     id="layer1"
     transform="translate(-51.107565,-92.175553)">
    <path
       d="m 84.181371,100.20467 q 0,1.9304 -1.4732,3.4544 -1.4224,1.524 -3.2004,1.524 -1.6256,0 -2.794,-0.8636 -1.3208,-0.8636 -1.3208,-2.286 0,-0.5588 0.3556,-1.27 0.508,-0.965203 1.4732,-0.965203 -0.0508,1.270003 -0.0508,2.540003 0.1016,1.8288 1.8288,1.8288 1.6256,0 2.54,-1.1176 0.8128,-0.9652 0.8128,-2.4892 0,-1.930403 -1.6764,-3.098803 -1.3716,-0.9652 -2.9972,-0.9652 -5.130799,0 -10.515599,4.927603 -4.7244,4.318 -7.874,10.5156 -3.1496,6.1976 -2.794,10.16 0.254,2.4384 1.778,4.2672 1.7272,2.0828 4.2164,2.0828 3.5052,0 6.7056,-2.3368 3.505199,-2.5908 3.505199,-6.1468 0,-1.2192 -0.609599,-2.286 -0.762,-1.3208 -2.1844,-1.3208 -1.0668,0 -1.8288,0.7112 -0.762,0.6604 -0.762,1.7272 0,1.5748 0.5588,2.1844 -0.4064,0.508 -0.8128,0.508 -0.762,0 -1.4224,-0.7112 -0.6096,-0.762 -0.6096,-1.4224 0,-1.6764 1.6764,-2.9972 1.524,-1.1176 2.8448,-1.1176 1.9812,0 3.708399,1.27 1.8796,1.4224 1.8288,3.3528 -0.1016,4.318 -5.232399,7.2644 -4.2672,2.54 -7.5692,2.286 -3.81,-0.254 -6.096,-3.556 -2.0828,-2.9464 -2.0828,-6.8072 0,-5.6388 3.9624,-11.3284 3.6576,-5.2832 9.3472,-8.788403 5.689599,-3.556 10.820399,-3.7084 2.4892,-0.0508 4.2164,1.3208 1.7272,1.3208 1.7272,3.657603 z"
       id="text1"
       style="font-size:50.8px;font-family:'Daresiel Demo';-inkscape-font-specification:'Daresiel Demo';fill:#c84382;stroke-width:0.264583"
       aria-label="C" />
  </g>
</svg>
